<?xml version="1.0" encoding="utf-8"?>
<!-- Generator: Adobe Illustrator 27.5.0, SVG Export Plug-In . SVG Version: 6.00 Build 0)  -->
<svg version="1.1" xmlns="http://www.w3.org/2000/svg" xmlns:xlink="http://www.w3.org/1999/xlink" x="0px" y="0px"
	 viewBox="0 0 500 500" style="enable-background:new 0 0 500 500;" xml:space="preserve">
<g id="BACKGROUND">
	<rect style="fill:transparent;" width="500" height="500"/>
</g>
<g id="OBJECT">
	<g>
		<path style="fill:#D4E7FF;" d="M430.667,276.128c-4.424,95.577-89.454,122.787-195.359,124.834
			c-161.5,3.122-180.296-48.187-180.296-143.87S90.219,62.621,183.571,69.905c44.353,3.461,94.693,76.97,132.384,101.363
			C368.014,204.961,433.991,204.331,430.667,276.128z"/>
		<path style="opacity:0.42;fill:none;stroke:#4570B4;stroke-miterlimit:10;" d="M52.526,316.163c0,0,33.638-14.676,49.105-62.534
			c15.467-47.857,43.505-88.157,96.629-90.864c53.124-2.707,110.585,0.62,129.568-27.901c18.984-28.521-21.587-29.173-22.159,20.867
			c-0.571,50.04,86.857,141.807,91.429,213.067c4.571,71.259-54.457,57.115-127.8,28.473
			c-73.343-28.642-149.902,28.045-197.622,6.844C23.955,382.915,26.026,337.566,52.526,316.163z"/>
		<circle style="opacity:0.42;fill:#4570B4;" cx="59.667" cy="241.411" r="19.29"/>
		
			<ellipse transform="matrix(0.7071 -0.7071 0.7071 0.7071 -153.2271 112.8981)" style="opacity:0.42;fill:none;stroke:#4570B4;stroke-miterlimit:10;" cx="59.667" cy="241.411" rx="24.624" ry="24.624"/>
		<circle style="opacity:0.42;fill:#4570B4;" cx="426.047" cy="253.629" r="22.499"/>
		<polygon style="opacity:0.42;fill:none;stroke:#4570B4;stroke-miterlimit:10;" points="268.906,192.944 262.832,202.587 
			275.763,202.587 		"/>
		<polygon style="opacity:0.42;fill:#4570B4;" points="183.25,103.152 175.137,116.034 192.41,116.034 		"/>
		<g>
			<circle style="opacity:0.42;fill:#4570B4;" cx="244.06" cy="105.714" r="23.462"/>
			<path style="fill:#FFFFFF;" d="M243.598,102.809l-1.319-2.524c-0.847-1.621-0.22-3.622,1.401-4.47h0
				c1.105-0.577,1.532-1.941,0.955-3.046l-1.974-3.777c-0.577-1.105-1.941-1.533-3.046-0.955l-1.719,0.898
				c-1.619,0.846-2.939,2.171-3.778,3.794l-0.502,0.971c-0.866,1.673-0.862,3.664,0.011,5.333l3.689,7.058l2.462,4.712l3.689,7.058
				c0.873,1.67,2.505,2.81,4.373,3.054l1.084,0.142c1.812,0.237,3.652-0.09,5.272-0.936l1.719-0.898
				c1.105-0.577,1.532-1.941,0.955-3.046l-1.974-3.777c-0.577-1.105-1.941-1.533-3.046-0.955l0,0
				c-1.621,0.847-3.622,0.22-4.469-1.401l-1.319-2.524L243.598,102.809z"/>
		</g>
		<path style="opacity:0.42;fill:none;stroke:#4570B4;stroke-miterlimit:10;" d="M415.669,370.343c0,2.682-2.175,4.857-4.857,4.857
			c-2.682,0-4.857-2.175-4.857-4.857c0-2.683,2.175-4.857,4.857-4.857C413.494,365.486,415.669,367.661,415.669,370.343z"/>
		<circle style="opacity:0.42;fill:#FFFFFF;" cx="125.291" cy="104.457" r="8.978"/>
		<circle style="opacity:0.42;fill:none;stroke:#4570B4;stroke-miterlimit:10;" cx="370.422" cy="229.229" r="8.978"/>
		<circle style="opacity:0.42;fill:#4570B4;" cx="87.716" cy="280.614" r="8.751"/>
		<circle style="opacity:0.42;fill:none;stroke:#FFFFFF;stroke-miterlimit:10;" cx="426.047" cy="253.629" r="15.52"/>
	</g>
	<g>
		<path style="opacity:0.42;fill:#4570B4;" d="M412.856,106.616h-107.56c-4.595,0-8.321,3.725-8.321,8.321v64.971
			c0,4.595,3.725,8.321,8.321,8.321h68.595v16.379c0,2.741,3.204,4.232,5.301,2.467l22.393-18.846h11.271
			c4.595,0,8.321-3.725,8.321-8.321v-64.971C421.177,110.341,417.452,106.616,412.856,106.616z"/>
		<g>
			<path style="fill:#8C3C3D;" d="M440.098,114.719c0,9.71-2.79,18.76-7.6,26.36c-0.76,1.22-1.58,2.41-2.45,3.55
				c-8.79,11.54-22.54,18.97-37.99,18.97c-7.93,0-15.41-1.95-22-5.42c-15.47-8.12-26.04-24.54-26.04-43.46
				c0-2.21,0.14-4.39,0.43-6.53c3.13-23.91,23.26-42.36,47.61-42.36C418.587,65.829,440.098,87.719,440.098,114.719z"/>
			<path style="fill:#C6606C;" d="M430.048,144.625c-8.79,11.54-22.54,18.97-37.99,18.97c-7.93,0-15.41-1.95-22-5.42
				c0.9-2.25,3.66-8.22,8.55-11.56c6.1-4.18,24.64-6.69,37.5-5.59C423.698,141.665,427.888,143.355,430.048,144.625z"/>
			<path style="fill:#FFFFFF;" d="M370.422,89.921l0.503,23.871c0,0,0.758,24.387,20.605,23.955
				c19.847-0.432,24.04-30.559,24.04-30.559l-3.122-18.278C412.448,88.91,389.249,73.428,370.422,89.921z"/>
			<path style="fill:#FFFFFF;" d="M391.664,132.01c0,0,1.474,9.23-0.75,12.249c-2.225,3.018,4.417,13.505,4.417,13.505
				l15.368-14.098c0,0-1.021-10.335-0.743-19.386L391.664,132.01z"/>
			<path style="fill:#00496A;" d="M370.537,95.405c0,0,5.711,1.818,11.818,1.283c6.107-0.536,8.25-3,8.25-3s2.036,0.857,5.357,0.857
				c3.321,0,5.786-1.607,5.786-1.607s-2.25,3.857-1.286,8.786c0.964,4.929,4.179,6.214,4.179,6.214s2.036-4.929,5.571-4.929
				s4.822,3.75,3.911,8.679c-0.911,4.928-6.59,6.107-6.59,6.107l2.421,6.485c0,0,9.15-9.806,10.222-20.628
				c1.071-10.821-4.393-14.036-4.393-14.036s0.456-8.036-10.272-10.821s-17.8-2.571-25.835,2.036c0,0-6.75-5.143-12.429-2.036
				c-5.679,3.107-4.071,9.75-1.286,11.464c0,0-5.464,1.393-4.286,8.143c1.178,6.75,9.055,6.222,9.055,6.222L370.537,95.405z"/>
			<path style="fill:#D9D9D9;" d="M391.53,137.747c0,0,14.425-3.817,15.854-13.467c0,0,3.578,13.992-15.854,18.742
				C391.53,143.022,392.105,138.865,391.53,137.747z"/>
		</g>
		<g>
			
				<ellipse transform="matrix(0.1613 -0.9869 0.9869 0.1613 291.7381 506.1049)" style="opacity:0.42;fill:#4570B4;" cx="443.641" cy="81.405" rx="22.464" ry="22.464"/>
			<g>
				<path style="fill:#FFFFFF;" d="M441.104,87.453l-0.08-1.045c-0.241-2.17,0.482-4.542,2.491-6.953
					c1.809-2.13,2.814-3.698,2.814-5.506c0-2.05-1.286-3.416-3.817-3.456c-1.447,0-3.055,0.482-4.06,1.246l-0.965-2.532
					c1.326-0.964,3.617-1.607,5.747-1.607c4.622,0,6.712,2.854,6.712,5.908c0,2.733-1.527,4.702-3.456,6.993
					c-1.769,2.09-2.411,3.858-2.291,5.908l0.04,1.045H441.104z M440.221,93.08c0-1.487,1.004-2.532,2.411-2.532
					c1.406,0,2.371,1.045,2.371,2.532c0,1.407-0.924,2.492-2.411,2.492C441.185,95.572,440.221,94.487,440.221,93.08z"/>
			</g>
		</g>
	</g>
	<g>
		<g>
			<g>
				<path style="fill:#A6D6F7;" d="M405.444,345.499c-0.072,0.228-0.161,0.419-0.268,0.574c-1.897,2.75-3.901,5.417-6.013,8.003
					h-0.009c-68.635,84.346-245.149,84.346-245.149,84.346V337.751h251.171C405.176,337.751,406.142,343.232,405.444,345.499z"/>
				<path style="fill:#8CC6E5;" d="M405.444,345.499c-0.072,0.228-0.161,0.419-0.268,0.574c-1.897,2.75-3.901,5.417-6.013,8.003
					h-0.009l-245.149,27.897v-36.473H405.444z"/>
				<path style="fill:#FF6A76;" d="M269.298,266.539l-12.15,12.88c0,0-2.49-2.56-5.47-6.48c-1.42-1.88-2.95-4.07-4.36-6.44
					c-1.85-3.1-3.51-6.5-4.46-9.91c-3.2-11.45-1.89-35.6-1.89-35.6s5.18,0.56,6.95,2.53
					C257.888,234.619,269.298,266.539,269.298,266.539z"/>
				<path style="fill:#4570B4;" d="M223.625,308.616h-87.004l-7.945-66.901c-0.913-7.657,4.429-14.631,11.945-15.605l5.234-0.683
					l66.479-8.64L223.625,308.616z"/>
				<path style="fill:#FF6A76;" d="M202.38,218.999c0,0-28.312,9.105-29.846,11.446c-1.534,2.341,11.759,43.833,11.759,43.833
					l-2.556,34.338h57.647l2.905-32.768c0,0,6.17-6.772,6.553-17.958c0.383-11.186-7.879-36.9-7.879-36.9l-20.114-2.641
					L202.38,218.999z"/>
				<path style="fill:#00496A;" d="M210.485,154.548c0,0-19.735-8.485-33.743,11.314c-14.009,19.799,0.499,50.925,0.499,50.925
					s35.746-4.667,45.641-5.621c9.895-0.954,11.896-0.954,11.896-0.954s5.098-31.269-5.781-42.765
					C218.117,155.949,210.485,154.548,210.485,154.548z"/>
				<path style="fill:#FFFFFF;" d="M217.827,231.769l-16.66-11.42c0,0,1.37-4.37,1.03-8.74c-0.08-0.97-0.24-1.94-0.52-2.86
					c-0.14-0.46-0.31-0.91-0.51-1.35l16.66-0.83c0,0,0.11,1.35,0.42,3.09c0.25,1.36,0.62,2.96,1.18,4.35
					c0.4,1.03,0.9,1.94,1.52,2.57C223.498,219.169,217.827,231.769,217.827,231.769z"/>
				<path style="fill:#D9D9D9;" d="M219.428,214.009c-2.14,0.07-11.33,0.21-17.23-2.4c-0.08-0.97-0.24-1.94-0.52-2.86
					c0,0,11.23,1.37,16.57,0.91C218.498,211.019,218.868,212.619,219.428,214.009z"/>
				<path style="fill:#FFFFFF;" d="M227.2,162.063l2.777,22.96c0,0,3.641,23.659-15.451,25.955s-25.51-19.773-25.51-19.773
					l-2.256-24.373C186.759,166.832,206.893,148.817,227.2,162.063z"/>
				<path style="fill:#00496A;" d="M218.496,163.843c0,0-2.497,6.143-10.712,10.5c-7.282,3.863-14.115,4.929-14.115,4.929
					s-1.096,6.466-4.784,10.524c0,0-6.378-12.102-3.775-22.523c2.604-10.42,16.055-15.454,27.857-14.394
					c11.802,1.06,16.055,5.387,17.617,12.275s-1.053,16.184-1.053,16.184S227.026,165.986,218.496,163.843z"/>
				<path style="fill:#8C3C3D;" d="M186.759,184.734c0,0-2.273-17.461,11.195-26.733c8.77-6.038,19.807-4.431,19.807-4.431
					s-6.963-5.241-20.675,0.81c-13.712,6.051-14.406,19.733-13.017,30.354H186.759z"/>
				<path style="fill:#375C93;" d="M156.466,308.616h-19.845l-7.945-66.901c-0.913-7.657,4.429-14.631,11.945-15.605l5.234-0.683
					L156.466,308.616z"/>
				<g>
					<path style="fill:#375C93;" d="M205.382,206.771c-9.108,0-15.869-6.341-16.171-6.629l1.223-1.329
						c0.073,0.07,7.463,6.97,16.701,6.051l0.175,1.812C206.656,206.741,206.013,206.771,205.382,206.771z"/>
				</g>
				<path style="fill:#8C3C3D;" d="M431.079,346.074H158.107c-7.301,0-14.256-3.014-19.115-8.284L124,321.532
					c-5.816-6.308-1.186-16.299,7.553-16.299h266.484c9.21,0,18.06,3.458,24.685,9.645l15.387,14.371
					C444.655,335.363,440.179,346.074,431.079,346.074z"/>
				<path style="fill:#FFFFFF;" d="M306.596,224.835c-0.492,0.267-1.263,0.718-2.103,1.219l-0.162-0.26
					c2.496-1.591,6.194-4.076,5.944-4.683c-0.375-0.911-2.25-0.435-3.643,0.321c-0.804,0.437-2.264,1.305-3.671,2.156l-0.102-0.164
					c2.476-1.565,6.608-4.297,6.345-4.938c-0.375-0.911-2.25-0.435-3.643,0.321c-0.882,0.479-2.552,1.477-4.077,2.401l-0.119-0.191
					c2.458-1.585,5.661-3.786,5.428-4.353c-0.375-0.911-2.25-0.435-3.643,0.321c-1.878,1.02-7.331,4.392-7.332,4.393l-3.972,1.446
					c0.857-1.393,3.268-6.536,2.143-6.536s-4.232,3.589-5.518,7.286c-0.963,2.768-1.084,5.236-1.085,6.301l-34.807,44.23
					c0,0,0.825,1.295,2.07,3.017c3.611,4.995,12.02,6.093,16.875,2.296c3.835-2.999,6.863-6.96,9.827-11.006
					c5.586-7.624,13.916-27.848,15.874-32.69l7.878-7.384c2.159-1.395,4.911-3.295,4.708-3.788
					C309.482,223.747,307.826,224.167,306.596,224.835z"/>
				<path style="fill:#00496A;" d="M215.029,315.986c0,0,4.072,3,5.679,7.071c1.607,4.071-8.679,6.693-25.849,0.863
					C182.366,319.679,203.458,306.665,215.029,315.986z"/>
				<path style="fill:#00496A;" d="M208.563,207.867h-2.301c-0.821,0-1.486-0.677-1.486-1.512v-1.414
					c0-0.835,0.665-1.512,1.486-1.512h2.301c0.821,0,1.486,0.677,1.486,1.512v0.707v0.707
					C210.049,207.19,209.384,207.867,208.563,207.867z"/>
				<path style="fill:#4570B4;" d="M196.596,189.912c1.273,6.363-2.039,12.42-7.397,13.53c-5.358,1.109-10.733-3.149-12.005-9.512
					c-1.272-6.363,2.039-12.42,7.397-13.53C189.948,179.291,195.324,183.549,196.596,189.912z"/>
				<path style="fill:#8C3C3D;" d="M191.197,191.03c0.751,3.753-1.203,7.327-4.363,7.981c-3.16,0.655-6.331-1.857-7.082-5.611
					c-0.751-3.753,1.203-7.327,4.363-7.981C187.275,184.765,190.446,187.277,191.197,191.03z"/>
				<path style="fill:#FF6A76;" d="M177.197,227.94c0,0-4.863,0.729-6.836,3.87c-8.456,13.462-24.925,54.628-24.925,54.628
					l15.88,7.024c0,0,20.879-24.193,22.796-35.703C186.031,246.248,177.197,227.94,177.197,227.94z"/>
				<path style="fill:#FFFFFF;" d="M159.816,289.95l32.594,21.201l-4.602,10.21c0,0-29.335-10.535-38.346-17.364
					c-9.011-6.829-4.026-17.559-4.026-17.559S150.421,285.853,159.816,289.95z"/>
				<path style="fill:#FFFFFF;" d="M191.451,310.826c0,0,10.993-0.52,14.955-0.52c3.962,0,10.865,6.503,10.098,8.584
					c-0.767,2.081-8.692-4.292-8.692-4.292l-0.447,0.845c0,0,7.03,4.292,7.413,5.918c0.383,1.626-1.214,1.366-3.515,0.39
					c-2.301-0.975-5.752-3.187-5.752-3.187l-0.383,0.455c0,0,6.647,4.097,6.647,5.593s-4.793-0.195-8.308-2.536l-0.447,0.715
					c0,0,4.346,2.211,4.665,3.642c0.32,1.431-2.045,0.846-4.665-0.39c-2.62-1.236-5.049-1.366-8.436-1.886
					c-3.387-0.52-7.406-3.026-7.406-3.026L191.451,310.826z"/>
				<path style="fill:#4570B4;" d="M393.526,251.358l-15.631,78.393H262.09l15.541-77.941c0.328-1.647,1.751-2.83,3.402-2.83
					h110.581C392.847,248.979,393.771,250.128,393.526,251.358z"/>
				<path style="fill:#00496A;" d="M262.09,329.751l-31.814-10.349c-1.124-0.366-1.885-1.413-1.885-2.595l0,0
					c0-1.507,1.222-2.729,2.729-2.729h34.095L262.09,329.751z"/>
				<path style="fill:#C6606C;" d="M178.608,231.125c0,0,7.123,20.141,2.806,33.966
					C181.414,265.091,195.975,248.906,178.608,231.125z"/>
				<path style="fill:#C6606C;" d="M251.678,272.939c-1.42-1.88-2.95-4.07-4.36-6.44c2.94-11.55-3.9-37.27-3.9-37.27
					C258.408,248.339,254.228,266.089,251.678,272.939z"/>
				<polygon style="fill:#375C93;" points="284.6,253.629 377.895,329.751 271.526,329.751 				"/>
				
					<ellipse transform="matrix(0.9248 -0.3805 0.3805 0.9248 -86.3308 150.3668)" style="fill:#A6D6F7;" cx="337.13" cy="293.524" rx="9.302" ry="9.303"/>
				<path style="fill:#FFA9B3;" d="M202.088,215.754l15.74,16.015c0,0-2.73,3.862-7.275,3.755c-4.545-0.107-7.098-5.884-8.384-8.89
					c-1.286-3.005-3.91-6.285-3.91-6.285L202.088,215.754z"/>
				<path style="fill:#FFA9B3;" d="M217.827,231.769c0,0,4.056,2.467,8.02,0.753c3.964-1.714,2.893-4.334,1.5-7.096
					c-1.393-2.762-2.893-7.69-2.893-7.69l-4.519-2.605C219.936,215.131,220.736,225.659,217.827,231.769z"/>
				<path style="fill:#C6606C;" d="M242.096,262.701l-39.662,3.837c0,0,8.893,6.377,22.583,4.448
					C238.708,269.058,242.096,262.701,242.096,262.701z"/>
			</g>
			<g>
				<path style="opacity:0.42;fill:#4570B4;" d="M153.445,133.742H81.723c-4.572,0-8.278,3.706-8.278,8.278v19.011
					c0,4.572,3.706,8.278,8.278,8.278h60.417l19.584,11.32v-11.32v-5.473V142.02C161.723,137.448,158.017,133.742,153.445,133.742z"
					/>
				
					<line style="fill:none;stroke:#FFFFFF;stroke-linecap:round;stroke-linejoin:round;stroke-miterlimit:10;" x1="78.957" y1="142.343" x2="153.669" y2="142.343"/>
				
					<line style="fill:none;stroke:#FFFFFF;stroke-linecap:round;stroke-linejoin:round;stroke-miterlimit:10;" x1="78.957" y1="151.464" x2="153.669" y2="151.464"/>
				
					<line style="fill:none;stroke:#FFFFFF;stroke-linecap:round;stroke-linejoin:round;stroke-miterlimit:10;" x1="78.957" y1="160.584" x2="153.669" y2="160.584"/>
			</g>
		</g>
		<g>
			<g>
				<path style="fill:#C6606C;" d="M157.551,354.792c1.877-15.518-10.371-13.186-18.748-5c-8.376,8.186-16.588,3.615-7.297-11.678
					c9.291-15.293,16.095-19.998,14.808-27.698s-8.003-4.333-19.622,2.072c-11.619,6.405-0.638-10.316-1.516-26.179
					c-0.877-15.862-16.628-7.937-17.952,5.415c-1.324,13.352,4.638,28.302-3.006,25.336S91.951,296.359,85,304.732
					s19.62,36.758,18.727,45.329c-0.893,8.57-20.009-17.546-25.501-8.947c-5.492,8.599,18.269,66.022,38.839,64.413
					C143.198,403.483,155.675,370.31,157.551,354.792z"/>
				<path style="fill:none;stroke:#AA4451;stroke-miterlimit:10;" d="M115.208,293.59c0,0-3.285,17.956-1.971,40.731
					c1.314,22.776,4.291,80.078,4.291,80.078"/>
				<path style="fill:none;stroke:#AA4451;stroke-miterlimit:10;" d="M92.871,316.163c0,0,15.096,17.916,20.578,21.87
					c0,0,19.497-18.787,23.22-21.87"/>
				<path style="fill:none;stroke:#AA4451;stroke-miterlimit:10;" d="M83.954,352.035c0,0,22.7,22.835,31.576,24.35l33.402-22.391"
					/>
				<path style="fill:#FF6A76;" d="M108.143,396.707c0,0,9.839-21.757,4.538-33.447c-5.301-11.69-12.902-4.83-15.289,4.487
					c-2.387,9.317-10.099,9.611-10.101-5.083c-0.002-14.694,2.766-20.898-1.421-25.753s-7.464,0.372-12.886,9.823
					s-4.848-6.967-12.228-17.725c-7.381-10.758-15.054,1.522-10.289,11.456c4.765,9.935,15.325,17.883,8.696,19.062
					c-6.629,1.179-17.438-9.296-18.745-0.456c-1.307,8.84,29.445,17.428,32.474,23.823c3.029,6.395-21.525-3.779-21.711,4.597
					c-0.187,8.376,28.384,23.08,41.317,20.891C105.43,406.193,108.143,396.707,108.143,396.707z"/>
				<path style="fill:none;stroke:#AA4451;stroke-miterlimit:10;" d="M56.3,335.542c0,0,37.447,60.17,45.331,78.857"/>
				<polyline style="fill:none;stroke:#AA4451;stroke-miterlimit:10;" points="50.168,364.104 76.506,368.798 81.922,346.147 				
					"/>
				<polyline style="fill:none;stroke:#AA4451;stroke-miterlimit:10;" points="64.088,391.127 92.225,395.997 103.821,370.455 				
					"/>
			</g>
			<g>
				<polygon style="fill:#375C93;" points="91.411,414.399 139.005,414.399 134.917,438.422 96.375,438.422 				"/>
				<path style="fill:#4570B4;" d="M139.587,421.042H91.268c-1.775,0-3.214-1.439-3.214-3.214v-2.55
					c0-1.775,1.439-3.214,3.214-3.214h48.319c1.775,0,3.214,1.439,3.214,3.214v2.55
					C142.801,419.602,141.362,421.042,139.587,421.042z"/>
			</g>
		</g>
		<g>
			<circle style="opacity:0.42;fill:#4570B4;" cx="311.624" cy="408.014" r="33.044"/>
			<path style="fill:#FFFFFF;" d="M332.387,395.808h-41.526c-1.137,0-2.059,0.922-2.059,2.059v22.883
				c0,1.137,0.922,2.058,2.059,2.058h41.526c1.137,0,2.058-0.921,2.058-2.058v-22.883
				C334.445,396.729,333.523,395.808,332.387,395.808z M333.002,399.109l-19.5,12.75c-0.165,0.108-0.357,0.163-0.547,0.163
				c-0.168,0-0.337-0.042-0.489-0.128l-22.715-12.75c-0.482-0.271-0.653-0.88-0.383-1.361c0.27-0.482,0.882-0.653,1.361-0.383
				l22.186,12.453l18.992-12.418c0.46-0.303,1.082-0.173,1.384,0.29C333.595,398.187,333.465,398.807,333.002,399.109z"/>
			<circle style="fill:#FFA9B3;" cx="337.13" cy="392.204" r="12.246"/>
		</g>
	</g>
</g>
</svg>
